<svg width="1200" height="867" viewBox="0 0 1200 867" fill="none" xmlns="http://www.w3.org/2000/svg">
<path fill-rule="evenodd" clip-rule="evenodd" d="M0 4C0 1.79086 1.79086 0 4 0H198.114H425.248C427.457 0 429.248 1.79086 429.248 4V194.114C429.248 196.324 427.457 198.114 425.248 198.114H202.114C199.905 198.114 198.114 199.905 198.114 202.114V524.305C198.114 526.514 199.905 528.305 202.114 528.305H425.248C427.457 528.305 429.248 530.096 429.248 532.305V722.419C429.248 724.629 427.457 726.419 425.248 726.419H198.114H4C1.79086 726.419 0 724.629 0 722.419V528.305V198.114V4Z" fill="white"/>
<path fill-rule="evenodd" clip-rule="evenodd" d="M669.115 195.176C669.866 194.426 670.287 193.408 670.287 192.347V4C670.287 1.79086 668.496 0 666.287 0H476.173C473.963 0 472.173 1.79085 472.173 3.99999V382.462C472.173 386.025 476.481 387.81 479.001 385.29L669.115 195.176Z" fill="white"/>
<path fill-rule="evenodd" clip-rule="evenodd" d="M1193.17 719.591C1195.69 722.111 1193.91 726.419 1190.34 726.419H921.481C920.42 726.419 919.402 725.998 918.652 725.248L725.45 532.046C723.888 530.484 723.888 527.951 725.45 526.389L859.882 391.958C861.444 390.396 863.976 390.396 865.539 391.958L1193.17 719.591Z" fill="white"/>
<path fill-rule="evenodd" clip-rule="evenodd" d="M918.902 0C917.842 0 916.824 0.421427 916.074 1.17157L910.866 6.3792C908.347 8.89906 910.131 13.2076 913.695 13.2076H1183.73C1184.79 13.2076 1185.81 12.7862 1186.56 12.0361L1191.76 6.82843C1194.28 4.30857 1192.5 0 1188.94 0H918.902ZM890.581 36.321C887.018 36.321 885.233 32.0124 887.753 29.4925L892.961 24.2849C893.711 23.5348 894.728 23.1133 895.789 23.1133H1165.82C1169.39 23.1133 1171.17 27.4219 1168.65 29.9418L1163.44 35.1494C1162.69 35.8995 1161.68 36.321 1160.61 36.321H890.581ZM872.676 46.2267C871.615 46.2267 870.597 46.6481 869.847 47.3983L864.64 52.6059C862.12 55.1257 863.904 59.4343 867.468 59.4343H1137.5C1138.56 59.4343 1139.58 59.0129 1140.33 58.2627L1145.54 53.0551C1148.06 50.5353 1146.27 46.2267 1142.71 46.2267H872.676ZM844.355 82.5477C840.791 82.5477 839.006 78.2391 841.526 75.7192L846.734 70.5116C847.484 69.7615 848.502 69.34 849.562 69.34H1119.6C1123.16 69.34 1124.94 73.6486 1122.42 76.1685L1117.22 81.3761C1116.47 82.1262 1115.45 82.5477 1114.39 82.5477H844.355ZM826.449 92.4534C825.388 92.4534 824.371 92.8748 823.621 93.625L473.344 443.901C472.594 444.652 472.173 445.669 472.173 446.73L472.173 716.763C472.173 720.326 476.481 722.111 479.001 719.591L1099.31 99.2818C1101.83 96.762 1100.05 92.4534 1096.48 92.4534H826.449Z" fill="#165DFB"/>
<path d="M1110.78 865.484L1091.08 793.442H1099.94L1115 852.117H1115.7L1131.04 793.442H1140.89L1156.22 852.117H1156.93L1171.98 793.442H1180.85L1161.15 865.484H1152.14L1136.24 808.076H1135.68L1119.78 865.484H1110.78Z" fill="white"/>
<path d="M1080.05 829.463C1080.05 837.061 1078.68 843.628 1075.93 849.162C1073.19 854.697 1069.43 858.965 1064.64 861.966C1059.86 864.968 1054.39 866.469 1048.25 866.469C1042.11 866.469 1036.64 864.968 1031.86 861.966C1027.07 858.965 1023.31 854.697 1020.57 849.162C1017.82 843.628 1016.45 837.061 1016.45 829.463C1016.45 821.865 1017.82 815.299 1020.57 809.764C1023.31 804.23 1027.07 799.962 1031.86 796.96C1036.64 793.958 1042.11 792.458 1048.25 792.458C1054.39 792.458 1059.86 793.958 1064.64 796.96C1069.43 799.962 1073.19 804.23 1075.93 809.764C1078.68 815.299 1080.05 821.865 1080.05 829.463ZM1071.61 829.463C1071.61 823.225 1070.56 817.961 1068.48 813.669C1066.41 809.377 1063.61 806.129 1060.07 803.925C1056.55 801.721 1052.61 800.618 1048.25 800.618C1043.89 800.618 1039.94 801.721 1036.4 803.925C1032.88 806.129 1030.08 809.377 1027.99 813.669C1025.92 817.961 1024.89 823.225 1024.89 829.463C1024.89 835.701 1025.92 840.966 1027.99 845.258C1030.08 849.549 1032.88 852.797 1036.4 855.001C1039.94 857.206 1043.89 858.308 1048.25 858.308C1052.61 858.308 1056.55 857.206 1060.07 855.001C1063.61 852.797 1066.41 849.549 1068.48 845.258C1070.56 840.966 1071.61 835.701 1071.61 829.463Z" fill="white"/>
<path d="M955.693 865.484H946.547L972.999 793.442H982.005L1008.46 865.484H999.312L977.783 804.84H977.221L955.693 865.484ZM959.07 837.343H995.935V845.082H959.07V837.343Z" fill="white"/>
<path d="M885.147 865.484V793.442H893.87V829.182H894.715L927.077 793.442H938.474L908.222 825.946L938.474 865.484H927.921L902.876 831.996L893.87 842.127V865.484H885.147Z" fill="white"/>
<path d="M814.68 801.181V793.442H868.711V801.181H846.057V865.484H837.334V801.181H814.68Z" fill="white"/>
<path d="M798.156 793.442V865.484H789.433V793.442H798.156Z" fill="white"/>
<path d="M723.099 865.484V793.442H747.441C753.07 793.442 757.689 794.404 761.301 796.327C764.912 798.226 767.586 800.841 769.321 804.171C771.057 807.501 771.924 811.289 771.924 815.533C771.924 819.778 771.057 823.542 769.321 826.825C767.586 830.108 764.924 832.688 761.336 834.564C757.748 836.416 753.163 837.343 747.582 837.343H727.883V829.463H747.301C751.147 829.463 754.242 828.9 756.587 827.775C758.956 826.649 760.668 825.054 761.723 822.991C762.802 820.904 763.341 818.418 763.341 815.533C763.341 812.649 762.802 810.128 761.723 807.97C760.644 805.813 758.921 804.148 756.552 802.975C754.183 801.779 751.053 801.181 747.16 801.181H731.823V865.484H723.099ZM757.009 833.122L774.738 865.484H764.607L747.16 833.122H757.009Z" fill="white"/>
<path d="M655.508 865.484V793.442H664.232V829.182H665.076L697.439 793.442H708.836L678.584 825.946L708.836 865.484H698.283L673.237 831.996L664.232 842.127V865.484H655.508Z" fill="white"/>
<path d="M597.336 815.955C596.562 813.587 595.542 811.465 594.276 809.589C593.033 807.689 591.544 806.071 589.808 804.734C588.096 803.397 586.15 802.377 583.969 801.674C581.788 800.97 579.396 800.618 576.793 800.618C572.525 800.618 568.644 801.721 565.15 803.925C561.655 806.129 558.876 809.377 556.813 813.669C554.749 817.961 553.717 823.225 553.717 829.463C553.717 835.701 554.761 840.966 556.848 845.258C558.935 849.549 561.761 852.797 565.325 855.001C568.89 857.206 572.9 858.308 577.356 858.308C581.483 858.308 585.118 857.429 588.261 855.67C591.426 853.888 593.889 851.378 595.648 848.142C597.43 844.882 598.321 841.048 598.321 836.639L600.995 837.202H579.326V829.463H606.763V837.202C606.763 843.135 605.497 848.294 602.964 852.68C600.455 857.065 596.984 860.466 592.552 862.881C588.143 865.273 583.078 866.469 577.356 866.469C570.977 866.469 565.372 864.968 560.541 861.966C555.734 858.965 551.982 854.697 549.285 849.162C546.612 843.628 545.275 837.061 545.275 829.463C545.275 823.765 546.037 818.641 547.561 814.091C549.109 809.518 551.29 805.625 554.104 802.412C556.918 799.2 560.248 796.737 564.094 795.025C567.94 793.313 572.173 792.458 576.793 792.458C580.592 792.458 584.133 793.032 587.416 794.181C590.723 795.307 593.666 796.913 596.246 799C598.849 801.064 601.018 803.538 602.753 806.423C604.489 809.284 605.685 812.461 606.341 815.955H597.336Z" fill="white"/>
<path d="M527.661 793.442V865.484H519.219L479.962 808.92H479.258V865.484H470.534V793.442H478.977L518.374 850.147H519.078V793.442H527.661Z" fill="white"/>
<path d="M452.894 829.463C452.894 837.061 451.522 843.628 448.778 849.162C446.034 854.697 442.271 858.965 437.486 861.966C432.702 864.968 427.238 866.469 421.094 866.469C414.95 866.469 409.486 864.968 404.702 861.966C399.918 858.965 396.154 854.697 393.41 849.162C390.667 843.628 389.295 837.061 389.295 829.463C389.295 821.865 390.667 815.299 393.41 809.764C396.154 804.23 399.918 799.962 404.702 796.96C409.486 793.958 414.95 792.458 421.094 792.458C427.238 792.458 432.702 793.958 437.486 796.96C442.271 799.962 446.034 804.23 448.778 809.764C451.522 815.299 452.894 821.865 452.894 829.463ZM444.451 829.463C444.451 823.225 443.408 817.961 441.321 813.669C439.257 809.377 436.455 806.129 432.914 803.925C429.396 801.721 425.456 800.618 421.094 800.618C416.732 800.618 412.781 801.721 409.24 803.925C405.722 806.129 402.92 809.377 400.833 813.669C398.769 817.961 397.737 823.225 397.737 829.463C397.737 835.701 398.769 840.966 400.833 845.258C402.92 849.549 405.722 852.797 409.24 855.001C412.781 857.206 416.732 858.308 421.094 858.308C425.456 858.308 429.396 857.206 432.914 855.001C436.455 852.797 439.257 849.549 441.321 845.258C443.408 840.966 444.451 835.701 444.451 829.463Z" fill="white"/>
<path d="M326.259 865.484V793.442H350.601C356.253 793.442 360.873 794.463 364.461 796.503C368.072 798.52 370.746 801.252 372.481 804.699C374.216 808.146 375.084 811.992 375.084 816.237C375.084 820.481 374.216 824.339 372.481 827.81C370.769 831.281 368.119 834.048 364.531 836.112C360.943 838.152 356.347 839.172 350.742 839.172H333.294V831.433H350.46C354.33 831.433 357.437 830.765 359.782 829.428C362.127 828.091 363.827 826.286 364.883 824.011C365.962 821.713 366.501 819.121 366.501 816.237C366.501 813.352 365.962 810.773 364.883 808.498C363.827 806.223 362.116 804.441 359.747 803.151C357.378 801.838 354.236 801.181 350.32 801.181H334.983V865.484H326.259Z" fill="white"/>
<path d="M305.796 793.442V865.484H297.072V793.442H305.796Z" fill="white"/>
<path d="M226.605 801.181V793.442H280.636V801.181H257.983V865.484H249.259V801.181H226.605Z" fill="white"/>
<path d="M201.428 793.442H210.152V841.142C210.152 846.067 208.991 850.464 206.669 854.333C204.371 858.179 201.123 861.216 196.926 863.444C192.728 865.648 187.803 866.75 182.151 866.75C176.5 866.75 171.575 865.648 167.377 863.444C163.18 861.216 159.92 858.179 157.598 854.333C155.3 850.464 154.151 846.067 154.151 841.142V793.442H162.875V840.438C162.875 843.956 163.649 847.087 165.196 849.83C166.744 852.551 168.948 854.696 171.81 856.268C174.694 857.815 178.141 858.589 182.151 858.589C186.162 858.589 189.609 857.815 192.493 856.268C195.378 854.696 197.582 852.551 199.107 849.83C200.654 847.087 201.428 843.956 201.428 840.438V793.442Z" fill="white"/>
<path d="M77.8538 865.484V793.442H86.5776V825.523H124.99V793.442H133.714V865.484H124.99V833.262H86.5776V865.484H77.8538Z" fill="white"/>
<path d="M60.7851 815.955H52.0613C51.5454 813.446 50.6425 811.242 49.3527 809.342C48.0864 807.443 46.5386 805.848 44.7094 804.558C42.9037 803.245 40.8986 802.26 38.6942 801.603C36.4898 800.947 34.1916 800.618 31.7996 800.618C27.4377 800.618 23.4862 801.721 19.9451 803.925C16.4275 806.129 13.6251 809.377 11.5379 813.669C9.47422 817.961 8.44237 823.225 8.44237 829.463C8.44237 835.701 9.47422 840.966 11.5379 845.258C13.6251 849.549 16.4275 852.797 19.9451 855.001C23.4862 857.206 27.4377 858.308 31.7996 858.308C34.1916 858.308 36.4898 857.98 38.6942 857.323C40.8986 856.666 42.9037 855.693 44.7094 854.403C46.5386 853.09 48.0864 851.484 49.3527 849.584C50.6425 847.661 51.5454 845.457 52.0613 842.971H60.7851C60.1285 846.653 58.9325 849.948 57.1971 852.856C55.4617 855.764 53.3042 858.238 50.7246 860.278C48.145 862.295 45.2488 863.831 42.036 864.886C38.8466 865.941 35.4345 866.469 31.7996 866.469C25.6554 866.469 20.1913 864.968 15.4073 861.966C10.6233 858.965 6.85943 854.697 4.11566 849.162C1.37189 843.628 0 837.061 0 829.463C0 821.865 1.37189 815.299 4.11566 809.764C6.85943 804.23 10.6233 799.962 15.4073 796.96C20.1913 793.958 25.6554 792.458 31.7996 792.458C35.4345 792.458 38.8466 792.985 42.036 794.04C45.2488 795.096 48.145 796.644 50.7246 798.684C53.3042 800.701 55.4617 803.163 57.1971 806.071C58.9325 808.955 60.1285 812.25 60.7851 815.955Z" fill="white"/>
</svg>
