<svg width="600" height="600" viewBox="0 0 600 600" fill="none" xmlns="http://www.w3.org/2000/svg">
<path fill-rule="evenodd" clip-rule="evenodd" d="M54 155C54 152.791 55.7909 151 58 151H135.392H226.349C228.558 151 230.349 152.791 230.349 155V228.392C230.349 230.601 228.558 232.392 226.349 232.392H139.392C137.183 232.392 135.392 234.183 135.392 236.392V364.045C135.392 366.254 137.183 368.045 139.392 368.045H226.349C228.558 368.045 230.349 369.836 230.349 372.045V445.437C230.349 447.646 228.558 449.437 226.349 449.437H135.392H58C55.7909 449.437 54 447.646 54 445.437V368.045V232.392V155Z" fill="white"/>
<path fill-rule="evenodd" clip-rule="evenodd" d="M328.205 231.875C328.955 231.125 329.376 230.107 329.376 229.047V155C329.376 152.791 327.585 151 325.376 151H251.984C249.775 151 247.984 152.791 247.984 155V302.439C247.984 306.002 252.293 307.787 254.813 305.267L328.205 231.875Z" fill="white"/>
<path fill-rule="evenodd" clip-rule="evenodd" d="M540.171 442.609C542.691 445.129 540.907 449.437 537.343 449.437H433.551C432.49 449.437 431.473 449.016 430.723 448.266L353.706 371.249C352.143 369.687 352.143 367.154 353.706 365.592L405.601 313.696C407.164 312.134 409.696 312.134 411.258 313.696L540.171 442.609Z" fill="white"/>
<path fill-rule="evenodd" clip-rule="evenodd" d="M431.959 151C431.239 151 430.549 151.286 430.04 151.795V151.795C428.331 153.504 429.542 156.426 431.959 156.426H539.871C540.591 156.426 541.281 156.14 541.79 155.631V155.631C543.499 153.922 542.289 151 539.871 151H431.959ZM422.463 165.922C420.046 165.922 418.835 163 420.545 161.29V161.29C421.053 160.782 421.743 160.496 422.463 160.496H530.376C532.793 160.496 534.003 163.418 532.294 165.127V165.127C531.785 165.636 531.095 165.922 530.376 165.922H422.463ZM412.967 169.991C412.248 169.991 411.558 170.277 411.049 170.786V170.786C409.34 172.495 410.55 175.418 412.967 175.418H520.88C521.6 175.418 522.29 175.132 522.798 174.623V174.623C524.508 172.914 523.297 169.991 520.88 169.991H412.967ZM403.471 184.913C401.054 184.913 399.844 181.991 401.553 180.282V180.282C402.062 179.773 402.752 179.487 403.471 179.487H511.384C513.801 179.487 515.012 182.41 513.303 184.119V184.119C512.794 184.627 512.104 184.913 511.384 184.913H403.471ZM394.509 188.983C393.448 188.983 392.431 189.404 391.68 190.154L249.156 332.679C248.406 333.429 247.984 334.447 247.984 335.508L247.984 439.78C247.984 443.344 252.293 445.129 254.813 442.609L501.61 195.811C504.13 193.291 502.345 188.983 498.782 188.983H394.509Z" fill="#165DFB"/>
</svg>
